<svg xmlns="http://www.w3.org/2000/svg"  viewBox="0 0 120 120" width="120px" height="120px" baseProfile="basic"><ellipse cx="60" cy="63.5" opacity=".35" rx="48" ry="48.5"/><ellipse cx="60" cy="59.5" fill="#ff1200" rx="48" ry="48.5"/><ellipse cx="60" cy="59.5" fill="#ff1200" rx="48" ry="48.5"/><g opacity=".35"><path d="M81.379,34.136C75.4,29.654,68.007,27,60,27c-19.882,0-36,16.342-36,36.5c0,7.937,2.507,15.276,6.75,21.265L81.379,34.136 z"/><path d="M89.662,42.823L39.202,93.283C45.077,97.508,52.249,100,60,100c19.882,0,36-16.342,36-36.5 C96,55.822,93.656,48.701,89.662,42.823z"/></g><path fill="#ffc1bf" d="M81.379,30.136C75.4,25.654,68.007,23,60,23c-19.882,0-36,16.342-36,36.5 c0,7.937,2.507,15.276,6.75,21.265L81.379,30.136z"/><path fill="#ffc1bf" d="M89.662,38.823L39.202,89.283C45.077,93.508,52.249,96,60,96c19.882,0,36-16.342,36-36.5 C96,51.822,93.656,44.701,89.662,38.823z"/></svg>